<?xml version="1.0" encoding="utf-8"?>
<!-- Generator: Adobe Illustrator 21.0.0, SVG Export Plug-In . SVG Version: 6.00 Build 0)  -->
<svg version="1.1" id="Layer_1" xmlns="http://www.w3.org/2000/svg" xmlns:xlink="http://www.w3.org/1999/xlink" x="0px" y="0px"
	 viewBox="0 0 466.2 569.3" style="enable-background:new 0 0 466.2 569.3;" xml:space="preserve">
<style type="text/css">
	.st0{fill:none;}
	.st1{fill:#F1F1F1;}
	.st2{fill:#FDE07E;}
	.st3{fill:#7E8DFD;}
	.st4{fill:#4A5AA8;}
	.st5{fill:#383838;}
	.st6{fill:#AAAAAA;}
	.st7{fill:#565656;}
	.st8{fill:#35343A;}
	.st9{fill:#494A4C;}
	.st10{fill:#7A7A7A;}
	.st11{fill:#BCBCBC;}
	.st12{fill:#B0B7BD;}
	.st13{fill:#777777;}
	.st14{fill:#878787;}
	.st15{fill:#A1A19F;}
	.st16{fill:#7B7F82;}
	.st17{fill:#D7D9DB;}
	.st18{fill:#D89500;}
	.st19{fill:#A06432;}
	.st20{fill:#8C592C;}
	.st21{fill:#AF7337;}
	.st22{fill:#D1B300;}
	.st23{fill:#424242;}
	.st24{fill:#B79504;}
	.st25{fill:#A08202;}
	.st26{fill:#A0A0A0;}
	.st27{fill:#757575;}
	.st28{fill:#939393;}
	.st29{fill:#CCCCCC;}
	.st30{fill:#B9BAB4;}
	.st31{fill:#9FA09B;}
	.st32{fill:#DFDDDE;}
	.st33{fill:#EAEAEA;}
	.st34{fill:#E0C391;}
	.st35{fill:#B5B4AF;}
	.st36{fill:#F7F7F7;}
	.st37{fill:#727272;}
	.st38{fill:#848484;}
	.st39{fill:#232323;}
	.st40{fill:#333333;}
	.st41{fill:#474747;}
	.st42{fill:#494949;}
</style>
<title>polaroids</title>
<path id="XMLID_1546_" class="st0" d="M390.1,275.6c-0.1,0-0.2,0-0.3,0.1l-2.7,1.5l0,0.4l0.7,0.2l2.3-1.4c0.1-0.1,0.2-0.1,0.3-0.1
	l3.5-0.3c0.3,0,0.5-0.2,0.5-0.4l0-0.1c0-0.2-0.3-0.3-0.6-0.3L390.1,275.6z"/>
<g id="XMLID_1245_">
	
		<image style="overflow:visible;opacity:0.1;" width="221" height="227" xlink:href="6ABB190F.png"  transform="matrix(1 0 0 1 227.2466 175.3278)">
	</image>
	<g>
		<g id="XMLID_26_">
			<path class="st1" d="M341,379.6l-104.1-67.8c-1.2-0.8-1.5-2.4-0.8-3.6l80.6-123.7c0.8-1.2,2.4-1.5,3.6-0.8l104.1,67.8
				c1.2,0.8,1.5,2.4,0.8,3.6l-80.6,123.7C343.8,380.1,342.2,380.4,341,379.6z"/>
		</g>
		<g id="XMLID_25_">
			<path class="st2" d="M351.2,350.6l-92.5-60.2c-1-0.6-1.3-1.9-0.6-2.9l60.2-92.5c0.6-1,1.9-1.3,2.9-0.6l92.5,60.2
				c1,0.6,1.3,1.9,0.6,2.9L354.1,350C353.5,350.9,352.2,351.2,351.2,350.6z"/>
		</g>
	</g>
</g>
<g id="XMLID_1531_">
	
		<image style="overflow:visible;opacity:0.1;" width="215" height="220" xlink:href="6ABB190D.png"  transform="matrix(1 0 0 1 180.2466 311.3278)">
	</image>
	<g>
		<g id="XMLID_24_">
			<path class="st1" d="M372.2,435.2l-93.6,72.6c-1.1,0.8-2.6,0.6-3.5-0.4l-86.2-111.1c-0.8-1.1-0.6-2.6,0.4-3.5l93.6-72.6
				c1.1-0.8,2.6-0.6,3.5,0.4l86.2,111.1C373.4,432.8,373.2,434.4,372.2,435.2z"/>
		</g>
		<g id="XMLID_16_">
			<path class="st3" d="M349.2,416.9l-83.1,64.5c-0.9,0.7-2.1,0.5-2.8-0.4L198.8,398c-0.7-0.9-0.5-2.1,0.4-2.8l83.1-64.5
				c0.9-0.7,2.1-0.5,2.8,0.4l64.5,83.1C350.2,415,350,416.3,349.2,416.9z"/>
		</g>
	</g>
</g>
<g id="XMLID_13_">
	
		<image style="overflow:visible;opacity:0.1;" width="221" height="228" xlink:href="6ABB1913.png"  transform="matrix(1 0 0 1 129.2466 259.3278)">
	</image>
	<g>
		<g id="XMLID_23_">
			<path class="st1" d="M243.3,464.5l-104.1-67.8c-1.2-0.8-1.5-2.4-0.8-3.6L219,269.4c0.8-1.2,2.4-1.5,3.6-0.8l104.1,67.8
				c1.2,0.8,1.5,2.4,0.8,3.6l-80.6,123.7C246.1,464.9,244.5,465.3,243.3,464.5z"/>
		</g>
		<g id="XMLID_22_">
			<path class="st2" d="M253.5,435.4l-92.5-60.2c-1-0.6-1.3-1.9-0.6-2.9l60.2-92.5c0.6-1,1.9-1.3,2.9-0.6l92.5,60.2
				c1,0.6,1.3,1.9,0.6,2.9l-60.2,92.5C255.8,435.8,254.5,436.1,253.5,435.4z"/>
		</g>
	</g>
</g>
<g id="XMLID_1491_">
	<path id="XMLID_1495_" class="st1" d="M289.8,280.8l-119.8,15.8c-1.4,0.2-2.6-0.8-2.8-2.2l-18.8-142.3c-0.2-1.4,0.8-2.6,2.2-2.8
		l119.8-15.8c1.4-0.2,2.6,0.8,2.8,2.2L292,278C292.1,279.4,291.2,280.7,289.8,280.8z"/>
	<path id="XMLID_1492_" class="st2" d="M278.9,252.9L172.5,267c-1.1,0.1-2.2-0.6-2.3-1.8l-14.1-106.4c-0.1-1.1,0.6-2.2,1.8-2.3
		l106.4-14.1c1.1-0.1,2.2,0.6,2.3,1.8l14.1,106.4C280.9,251.7,280.1,252.8,278.9,252.9z"/>
</g>
<g id="XMLID_1466_">
	
		<image style="overflow:visible;opacity:0.1;" width="219" height="232" xlink:href="6ABB1915.png"  transform="matrix(1 0 0 1 12.2466 150.3278)">
	</image>
	<g>
		
			<image style="overflow:visible;opacity:0.1;" width="194" height="208" xlink:href="6ABB1917.png"  transform="matrix(1 0 0 1 17.2466 155.3278)">
		</image>
		<g>
			<g id="XMLID_21_">
				<path class="st1" d="M140.7,340.4L27.9,302.6c-1.3-0.4-2-1.8-1.6-3.1l45-134c0.4-1.3,1.8-2,3.1-1.6l112.8,37.9
					c1.3,0.4,2,1.8,1.6,3.1l-45,134C143.4,340.2,142,340.9,140.7,340.4z"/>
			</g>
			<g id="XMLID_20_">
				<path class="st2" d="M143.2,311L43,277.4c-1.1-0.4-1.6-1.5-1.3-2.6l33.6-100.2c0.4-1.1,1.5-1.6,2.6-1.3L178.2,207
					c1.1,0.4,1.6,1.5,1.3,2.6l-33.6,100.2C145.4,310.8,144.3,311.4,143.2,311z"/>
			</g>
		</g>
	</g>
</g>
<path id="XMLID_1453_" class="st0" d="M395.8,132.7c0,0,2.6,0.2,3.6,2.8"/>
<g id="XMLID_1446_">
	
		<image style="overflow:visible;opacity:0.1;" width="145" height="163" xlink:href="6ABB1914.png"  transform="matrix(1 0 0 1 45.2466 287.3278)">
	</image>
	<g>
		<g id="XMLID_19_">
			<path class="st1" d="M156.4,428l-101.1-7.6c-1.2-0.1-2-1.1-2-2.3l9-120c0.1-1.2,1.1-2,2.3-2l101.1,7.6c1.2,0.1,2,1.1,2,2.3
				l-9,120C158.6,427.3,157.5,428.1,156.4,428z"/>
		</g>
		<g id="XMLID_18_">
			<path class="st3" d="M152.3,403.2l-89.7-6.7c-0.9-0.1-1.7-0.9-1.6-1.8l6.7-89.7c0.1-0.9,0.9-1.7,1.8-1.6l89.7,6.7
				c0.9,0.1,1.7,0.9,1.6,1.8l-6.7,89.7C154.1,402.6,153.2,403.3,152.3,403.2z"/>
		</g>
	</g>
</g>
<g id="XMLID_1067_">
	
		<image style="overflow:visible;opacity:0.1;" width="196" height="206" xlink:href="6ABB191C.png"  transform="matrix(1 0 0 1 22.2466 209.3278)">
	</image>
	<g>
		<g id="XMLID_15_">
			<path class="st1" d="M194.4,343.4l-102,49.3c-1.2,0.6-2.6,0.1-3.2-1.1L30.7,270.4c-0.6-1.2-0.1-2.6,1.1-3.2l102-49.3
				c1.2-0.6,2.6-0.1,3.2,1.1l58.5,121.1C196.1,341.4,195.6,342.8,194.4,343.4z"/>
		</g>
		<g id="XMLID_4_">
			<path class="st4" d="M176.6,321.7L86,365.4c-1,0.5-2.1,0.1-2.6-0.9l-43.8-90.6c-0.5-1-0.1-2.1,0.9-2.6l90.6-43.8
				c1-0.5,2.1-0.1,2.6,0.9l43.8,90.6C177.9,320.1,177.5,321.2,176.6,321.7z"/>
		</g>
	</g>
</g>
<g id="XMLID_1170_">
	
		<image style="overflow:visible;opacity:0.1;" width="216" height="227" xlink:href="6ABB191D.png"  transform="matrix(1 0 0 1 64.2466 23.3278)">
	</image>
	<g>
		<g id="XMLID_14_">
			<path class="st1" d="M255.8,170.6l-112.6,56.5c-1.3,0.7-2.9,0.1-3.5-1.2l-67-133.7c-0.7-1.3-0.1-2.9,1.2-3.5l112.6-56.5
				c1.3-0.7,2.9-0.1,3.5,1.2l67,133.7C257.7,168.4,257.1,170,255.8,170.6z"/>
		</g>
		<g id="XMLID_13_">
			<path class="st3" d="M235.6,146.8l-100,50.1c-1.1,0.5-2.3,0.1-2.9-1l-50.1-100c-0.5-1.1-0.1-2.3,1-2.9l100-50.1
				c1.1-0.5,2.3-0.1,2.9,1l50.1,100C237.1,145,236.7,146.3,235.6,146.8z"/>
		</g>
	</g>
</g>
<g id="XMLID_1379_">
	
		<image style="overflow:visible;opacity:0.1;" width="167" height="186" xlink:href="6ABB191F.png"  transform="matrix(1 0 0 1 295.2466 251.3278)">
	</image>
	<g>
		<g id="XMLID_12_">
			<path class="st1" d="M418.5,414.7l-113-15.8c-1.3-0.2-2.2-1.4-2-2.7L322.3,262c0.2-1.3,1.4-2.2,2.7-2l113,15.8
				c1.3,0.2,2.2,1.4,2,2.7l-18.8,134.2C421,414,419.8,414.9,418.5,414.7z"/>
		</g>
		<g id="XMLID_11_">
			<path class="st4" d="M415.7,386.6l-100.4-14.1c-1.1-0.1-1.8-1.1-1.6-2.2L327.8,270c0.1-1.1,1.1-1.8,2.2-1.6l100.4,14.1
				c1.1,0.1,1.8,1.1,1.6,2.2l-14.1,100.4C417.8,386,416.8,386.7,415.7,386.6z"/>
		</g>
	</g>
</g>
<g id="XMLID_1132_">
	
		<image style="overflow:visible;opacity:0.1;" width="193" height="210" xlink:href="6D0A9F3C.png"  transform="matrix(1 0 0 1 249.2466 74.3278)">
	</image>
	<g>
		<g id="XMLID_10_">
			<path class="st1" d="M417.3,233.8L294.6,262c-1.4,0.3-2.8-0.6-3.1-2l-33.5-145.7c-0.3-1.4,0.6-2.8,2-3.1L382.6,83
				c1.4-0.3,2.8,0.6,3.1,2l33.5,145.7C419.6,232.1,418.7,233.5,417.3,233.8z"/>
		</g>
		<g id="XMLID_9_">
			<path class="st4" d="M403.3,205.9l-109,25c-1.1,0.3-2.3-0.5-2.6-1.6l-25-109c-0.3-1.1,0.5-2.3,1.6-2.6l109-25
				c1.1-0.3,2.3,0.5,2.6,1.6l25,109C405.2,204.5,404.4,205.6,403.3,205.9z"/>
		</g>
	</g>
</g>
<g id="XMLID_1187_">
	
		<image style="overflow:visible;opacity:0.1;" width="180" height="194" xlink:href="6D0A9F3B.png"  transform="matrix(1 0 0 1 158.2466 179.3278)">
	</image>
	<g>
		<g id="XMLID_8_">
			<path class="st1" d="M278.2,351l-109.6-28.8c-1.3-0.3-2-1.6-1.7-2.9l34.3-130.1c0.3-1.3,1.6-2,2.9-1.7l109.6,28.8
				c1.3,0.3,2,1.6,1.7,2.9l-34.3,130.1C280.8,350.5,279.5,351.3,278.2,351z"/>
		</g>
		<g id="XMLID_7_">
			<path class="st3" d="M278.7,322.9l-97.3-25.6c-1-0.3-1.6-1.3-1.4-2.3l25.6-97.3c0.3-1,1.3-1.6,2.3-1.4l97.3,25.6
				c1,0.3,1.6,1.3,1.4,2.3l-25.6,97.3C280.8,322.5,279.8,323.1,278.7,322.9z"/>
		</g>
	</g>
</g>
<g id="XMLID_610_">
	<g id="XMLID_711_">
		<path id="XMLID_719_" class="st5" d="M217.5,253.8c-0.4-0.1-0.5-0.1-0.6-0.1c-2.7-0.7-4.6,0.8-4.8,3.6c-0.1,1.4,0.7,2.4,2.2,2.7
			c1.5,0.3,2.9,0,4.3-0.3c2.5-0.5,4.9-1.4,7.4-2.2c1.8-0.5,3.7-1,5.5-1.3c4.2-0.5,7.8,0.8,10.6,4.1c0.2,0.3,0.4,0.6,0.9,0.4
			c5.3-2.1,10-0.7,14.2,2.9c2,1.7,3.6,3.7,5.3,5.6c1.1,1.3,2.3,2.5,3.7,3.4c0.7,0.4,1.4,0.7,2.2,0.7c2,0.1,3.1-0.6,3.4-2.2
			c0.4-1.8-0.5-3.9-2-4.5c-1-0.4-1.8,0.1-2.6,0.5c0.9-1.6,3.3-2,5.1-0.7c3,2.1,3.8,6.6,1.6,9.7c-1.7,2.5-4.2,3.7-7.1,4.1
			c-4,0.5-7.9-0.3-11.6-1.7c-4.6-1.7-8.8-4.1-12.3-7.6c-0.2-0.2-0.4-0.4-0.6-0.6c-0.6-0.7-1-2-1.7-2.1c-0.7-0.2-1.7,0.8-2.5,1.1
			c-4.8,1.8-9.8,1.6-14.8,1.2c-4.2-0.3-8.1-1.7-11.6-4.2c-3.6-2.6-4.8-6.7-3.1-10.5c1.2-2.9,4.2-4.4,6.9-3.5
			C216.5,252.6,216.9,253.2,217.5,253.8z"/>
	</g>
	<path id="XMLID_680_" class="st6" d="M227.9,257.6c1.1-0.4,2.3-0.6,3.4-0.8c1.2-0.1,2.4-0.2,3.5,0c1.2,0.2,2.3,0.5,3.4,1
		c1.1,0.6,2,1.4,2.6,2.4c-0.8-0.8-1.8-1.5-2.8-2c-1.1-0.4-2.2-0.7-3.3-0.9c-1.1-0.2-2.3-0.2-3.4-0.1
		C230.2,257.3,229,257.5,227.9,257.6z"/>
	<path id="XMLID_622_" class="st6" d="M257.5,264.8c-0.9-0.7-1.9-1.3-2.9-1.9c-1-0.6-2-1.1-3.1-1.5c-1.1-0.4-2.2-0.6-3.3-0.7
		c-1.1,0-2.3,0.1-3.4,0.5c1-0.6,2.2-0.9,3.4-0.9c1.2,0,2.4,0.2,3.5,0.6c1.1,0.4,2.2,1,3.2,1.6C255.8,263.2,256.7,263.9,257.5,264.8z
		"/>
</g>
<g id="XMLID_905_">
	<path id="XMLID_909_" class="st7" d="M132.9,140.8l-1,1.5l3,2.7l9.2-0.8l3.5-0.3l-2.2-4.2l-1.7-1.4
		C143.7,138.3,136.8,138.7,132.9,140.8z"/>
	<g id="XMLID_913_">
		<path id="XMLID_937_" class="st7" d="M197.2,111.2l1.8,0.2l0.1,4l-6.6,6.5l-2.5,2.5l-1.8-4.4l0-2.2
			C188.2,117.8,193,112.8,197.2,111.2z"/>
		<path id="XMLID_907_" class="st8" d="M180.4,101.9c0,0-5.1-9.4-19.2-3.4l-7.3,3.2l0,0l-0.1,0.1l-0.1,0l0,0l-7.2,3.4
			c-13.7,6.9-9.9,16.8-9.9,16.8l5.8,15.6l9.6,0.4l15.2-7l0.2-0.1l15.2-7l5.9-7.6L180.4,101.9z"/>
		<path id="XMLID_908_" class="st9" d="M170.1,137.1c2.1-1.1,19.2-10.3,21.3-14.3l-3-6.3c0,0-7,4.6-22.4,11.9
			c-15.6,7-23.6,9.3-23.6,9.3l2.8,6.3c4.4,1,22.5-6,24.7-6.8l0,0c0,0,0,0,0.1-0.1C170.1,137.1,170.1,137.1,170.1,137.1L170.1,137.1z
			"/>
	</g>
	<path id="XMLID_917_" class="st7" d="M161.4,101.1c1.6-0.6,3.3-1,5-1.2c1.7-0.2,3.5-0.1,5.2,0.3c1.7,0.4,3.3,1.1,4.7,2.2
		c1.4,1,2.4,2.5,3.2,4c-0.3-0.3-0.6-0.6-0.8-1l-0.4-0.5l-0.5-0.4c-0.3-0.3-0.6-0.6-0.9-0.8l-1-0.7c-1.4-0.8-2.9-1.5-4.5-1.8
		c-1.6-0.4-3.2-0.5-4.9-0.5C164.8,100.7,163.1,100.8,161.4,101.1z"/>
	<path id="XMLID_910_" class="st10" d="M198.7,110.4c-2.1-1.1-10,6.6-10,6.6l0.1,0.3c0,0,0.8-0.8,6.1-4.4c5.3-3.7,2.1,2.5,2.1,2.5
		c-5.2,9.7-26,19.7-27.6,20.5c-1.7,0.8-22.7,10-33.5,7.7c0,0-6.8-1.5-0.5-3.2c6.3-1.7,7.4-1.8,7.4-1.8l-0.1-0.3c0,0-11,1-11.6,3.3
		c-0.5,2.3-0.3,2.9,1.1,4.2c1.4,1.3,11.4,6.5,38.9-6.1l0,0c0,0,0.1,0,0.1-0.1c0,0,0.1,0,0.1-0.1l0,0c27.5-12.7,30-23.7,30-25.6
		C201.1,112,200.8,111.5,198.7,110.4z"/>
	<path id="XMLID_918_" class="st11" d="M131.5,142.7c0,0.4,0.1,0.7,0.3,1c0.2,0.3,0.5,0.5,0.8,0.7c0.6,0.4,1.2,0.7,1.9,0.9
		c0.3,0.1,0.7,0.2,1,0.3c0.3,0.1,0.7,0.2,1,0.3c0.7,0.2,1.4,0.3,2.1,0.6c-0.7,0-1.5-0.1-2.2-0.2c-0.7-0.1-1.4-0.3-2.1-0.5
		c-0.7-0.2-1.4-0.6-2-1c-0.3-0.2-0.6-0.5-0.7-0.9C131.4,143.4,131.3,143,131.5,142.7z"/>
</g>
<g id="XMLID_789_">
	
		<rect id="XMLID_331_" x="332.3" y="139.6" transform="matrix(0.4198 -0.9076 0.9076 0.4198 70.9181 394.7987)" class="st12" width="24" height="4.6"/>
	<path id="XMLID_818_" class="st13" d="M319.3,206.4c0.2-0.9-0.1-1.1-0.1-1.1l-3.5-1.6l-3.5-1.6c0,0-0.3-0.2-0.9,0.6
		c-0.3,0.4-0.6,0.9-0.8,1.2c-0.2,0.3-0.1,0.7,0.1,0.9c0.5,0.4,1.5,1.1,3.6,2.1c2.2,1,3.3,1.3,4,1.4c0.3,0,0.6-0.2,0.7-0.5
		C319,207.4,319.2,206.9,319.3,206.4z"/>
	<path id="XMLID_774_" class="st14" d="M320,204.6c0.2-0.9-0.1-1-0.1-1l-3.4-1.6l-3.4-1.6c0,0-0.3-0.2-0.9,0.6
		c-0.3,0.4-0.6,0.9-0.8,1.2c-0.2,0.3-0.1,0.6,0.1,0.9c0.4,0.4,1.4,1.1,3.5,2.1s3.2,1.3,3.8,1.3c0.3,0,0.6-0.2,0.7-0.5
		C319.7,205.6,319.9,205.1,320,204.6z"/>
	
		<rect id="XMLID_338_" x="320.5" y="163.5" transform="matrix(0.4198 -0.9076 0.9076 0.4198 42.8333 398.6274)" class="st12" width="25.4" height="4.6"/>
	<path id="XMLID_820_" class="st15" d="M320.3,202.2c0.2-0.7-0.1-0.9-0.1-0.9l-2.8-1.3l-2.8-1.3c0,0-0.3-0.1-0.7,0.5
		c-0.2,0.4-0.5,0.7-0.7,1c-0.2,0.2-0.1,0.5,0.1,0.7c0.4,0.3,1.2,0.9,2.9,1.7s2.7,1,3.2,1.1c0.3,0,0.5-0.1,0.6-0.4
		C320.1,203.1,320.2,202.6,320.3,202.2z"/>
	
		<rect id="XMLID_339_" x="315.3" y="185.1" transform="matrix(0.4198 -0.9076 0.9076 0.4198 17.4158 402.0926)" class="st12" width="15.9" height="4.6"/>
	<path id="XMLID_336_" class="st16" d="M328.5,181.1l-4-1.8c-0.3-0.1-0.4-0.5-0.3-0.7l0,0c0.3-1.1,0.8-2.1,1.4-3l0,0
		c0.1-0.3,0.5-0.4,0.7-0.3l4,1.8c0.3,0.1,0.4,0.5,0.3,0.7l-0.1,0.3c-0.3,0.9-0.7,1.7-1.2,2.5l-0.1,0.2
		C329.2,181.2,328.8,181.3,328.5,181.1z"/>
	<path id="XMLID_797_" class="st16" d="M321.9,196.7l0.1-0.4c0.2-0.4,0.1-0.8-0.2-1l-1.9-0.9l-1.9-0.9c-0.3-0.1-0.7,0.1-0.9,0.5
		l-0.2,0.3c-0.7,1.1-1.8,2.1-2.2,3.4l-0.1,0.4c-0.2,0.4-0.1,0.8,0.2,1l0,0c1.4,1.1,3.1,1.9,4.8,2.2l0.1,0c0.3,0.1,0.7-0.1,0.9-0.5
		l0.2-0.3C321.5,199.4,321.5,197.9,321.9,196.7z"/>
	<path id="XMLID_345_" class="st16" d="M340.4,155.6l-4-1.8c-0.3-0.1-0.4-0.5-0.3-0.7l0,0c0.3-1.1,0.8-2.1,1.4-3l0,0
		c0.1-0.3,0.5-0.4,0.7-0.3l4,1.8c0.3,0.1,0.4,0.5,0.3,0.7l-0.1,0.3c-0.3,0.9-0.7,1.7-1.2,2.5l-0.1,0.2
		C341,155.6,340.7,155.7,340.4,155.6z"/>
	<path id="XMLID_738_" class="st16" d="M349.4,124.3l-2.2,4.8c-0.2,0.5,0,1.1,0.5,1.3l3.6,1.7c0.4,0.2,1,0.1,1.2-0.4l2.2-3.4
		c1.3-2,3.7-3.1,6.1-2.7c2,0.4,4.5,1.7,7.2,5c0.2,0.3,0.6,0.4,1,0.3c1-0.2,2.7-0.9,2.7-3c0-0.5-0.2-1-0.6-1.3l-6.1-5.4
		c-0.1-0.1-0.3-0.2-0.5-0.2c-1.8,0-11.4-0.2-12.7-5.2c-0.1-0.2-0.2-0.4-0.4-0.4c-0.7-0.2-2.5-0.2-4.2,3c-0.6,1.3-0.9,2.1-1,2.8
		c-0.1,0.9,0.7,1.6,1.6,1.6c0.3,0,0.7-0.1,1-0.2c0.3-0.1,0.6,0,0.6,0.3l0,0C349.6,123.4,349.6,123.9,349.4,124.3z"/>
	<path id="XMLID_343_" class="st16" d="M314.6,198.7"/>
	<path id="XMLID_708_" class="st12" d="M350.8,116c-0.6,0.4-1.1,0.9-1.5,1.4c-0.4,0.5-0.8,1.1-1.1,1.7c-0.2,0.3-0.3,0.6-0.4,0.9
		c-0.1,0.3-0.3,0.7-0.2,0.9c0,0.3,0.3,0.6,0.6,0.6c0.3,0.1,0.6,0,1-0.2c-0.2,0.3-0.6,0.5-1,0.4c-0.4-0.1-0.7-0.4-0.9-0.8
		c-0.1-0.2,0-0.4,0-0.6l0.1-0.5c0.1-0.3,0.2-0.7,0.4-1c0.3-0.6,0.8-1.3,1.3-1.8C349.5,116.7,350.1,116.3,350.8,116z"/>
	<path id="XMLID_735_" class="st12" d="M371.2,127.4c0,0.7-0.3,1.4-0.7,2c-0.3,0.3-0.6,0.5-0.9,0.6c-0.3,0.1-0.7,0.2-1.1,0.1
		c0.3-0.1,0.6-0.2,0.9-0.4c0.3-0.2,0.5-0.4,0.7-0.6C370.5,128.6,370.8,128.1,371.2,127.4z"/>
	<path id="XMLID_764_" class="st12" d="M341.9,151.8c0.1,0.6-0.1,1.3-0.3,1.9c-0.1,0.3-0.3,0.6-0.5,0.8c-0.2,0.3-0.5,0.4-0.7,0.6
		c0.2-0.2,0.4-0.5,0.6-0.7c0.2-0.3,0.3-0.5,0.4-0.8C341.6,153.1,341.8,152.5,341.9,151.8z"/>
	<path id="XMLID_787_" class="st12" d="M330,177.5c0.1,0.6-0.1,1.3-0.3,1.9c-0.1,0.3-0.3,0.6-0.5,0.8c-0.2,0.3-0.5,0.4-0.7,0.6
		c0.2-0.2,0.4-0.5,0.6-0.7c0.2-0.3,0.3-0.5,0.4-0.8C329.8,178.7,329.9,178.1,330,177.5z"/>
	<polygon id="XMLID_17_" class="st17" points="342.1,151 341.7,150.8 350.4,132.1 350.5,133 	"/>
	
		<rect id="XMLID_792_" x="323.7" y="165.9" transform="matrix(0.4198 -0.9076 0.9076 0.4198 43.5309 400.3309)" class="st17" width="22.4" height="0.5"/>
	<polygon id="XMLID_865_" class="st17" points="322.2,194.2 321.4,194.7 327.7,181.1 328.1,181.3 	"/>
</g>
<g id="XMLID_20_">
	<g id="XMLID_1095_">
		
			<image style="overflow:visible;opacity:0.3;" width="209" height="221" xlink:href="6D0A9F34.png"  transform="matrix(1 0 0 1 85.0755 333.1566)">
		</image>
		<g>
			<g id="XMLID_6_">
				<path class="st1" d="M218.8,537.1l-115-45.9c-1.3-0.5-2-2-1.4-3.4l54.5-136.6c0.5-1.3,2-2,3.4-1.4l115,45.9c1.3,0.5,2,2,1.4,3.4
					l-54.5,136.6C221.6,537,220.1,537.6,218.8,537.1z"/>
			</g>
			<g id="XMLID_5_">
				<path class="st4" d="M223.1,506.7l-102.1-40.8c-1.1-0.4-1.6-1.7-1.2-2.7L160.6,361c0.4-1.1,1.7-1.6,2.7-1.2l102.1,40.8
					c1.1,0.4,1.6,1.7,1.2,2.7l-40.8,102.1C225.4,506.6,224.2,507.1,223.1,506.7z"/>
			</g>
		</g>
	</g>
	<g id="XMLID_821_">
		
			<ellipse id="XMLID_949_" transform="matrix(0.3573 -0.934 0.934 0.3573 -318.2231 437.444)" class="st18" cx="158.8" cy="450" rx="1" ry="1"/>
		
			<ellipse id="XMLID_979_" transform="matrix(0.3573 -0.934 0.934 0.3573 -303.792 496.1206)" class="st18" cx="208.6" cy="468.8" rx="1.2" ry="1.2"/>
		<path id="XMLID_997_" class="st19" d="M168.5,405.3l2.7-4.7c0.6-1,1.3-1.5,1.9-1.3l58.9,22.5c0.6,0.2,0.8,1.2,0.5,2.4l-1.3,5"/>
		<path id="XMLID_793_" class="st20" d="M214,471.5l-60.7-23.2c-0.6-0.2-0.8-0.8-0.6-1.4l15.9-41.5c0.2-0.6,0.8-0.8,1.4-0.6
			l60.7,23.2c0.6,0.2,0.8,0.8,0.6,1.4l-15.9,41.5C215.2,471.4,214.5,471.7,214,471.5z"/>
		<path id="XMLID_983_" class="st21" d="M206.8,468.7L160.4,451c-4.5-1.7-6.8-6.8-5.1-11.4l10.4-27.1c1.7-4.5,6.8-6.8,11.4-5.1
			l46.3,17.7c4.5,1.7,6.8,6.8,5.1,11.4l-10.4,27.1C216.4,468.2,211.3,470.5,206.8,468.7z"/>
		<g id="XMLID_1014_">
			<path id="XMLID_1029_" class="st22" d="M195.4,408.7l-0.1,0.3c0,0.1-0.1,0.1-0.1,0.1l-2.3-0.9c-0.1,0-0.1-0.1-0.1-0.1l0.1-0.3
				c0-0.1,0-0.1-0.1-0.1l-0.5-0.2c0,0-0.1,0-0.1,0c-0.2,0.3-0.8,1.4-1.9,1.1c-0.1,0-0.1,0-0.1,0.1l-0.1,0.3c0,0.1,0,0.1,0.1,0.1
				l1.3,0.5l0.7,0.3l2.5,1l0.6,0.2c0.1,0,0.1,0,0.1-0.1l0.7-1.9c0-0.1,0-0.1-0.1-0.1l-0.5-0.2C195.4,408.7,195.4,408.7,195.4,408.7z
				 M194.7,410.4c0,0.1-0.1,0.1-0.1,0.1l-2.4-0.9l0.1-0.2l0.4-0.9c0-0.1,0.1-0.1,0.1-0.1l2.3,0.9c0.1,0,0.1,0.1,0.1,0.1L194.7,410.4
				z"/>
			<path id="XMLID_1023_" class="st22" d="M210,414.2l-0.5-0.2c-0.1,0-0.1,0-0.1,0.1l-0.7,1.9c0,0.1,0,0.1,0.1,0.1l0.6,0.2l2.5,1
				l0.7,0.3l1.3,0.5c0.1,0,0.1,0,0.1-0.1l0.1-0.3c0-0.1,0-0.1-0.1-0.1c-1-0.5-0.8-1.7-0.7-2.1c0-0.1,0-0.1-0.1-0.1l-0.5-0.2
				c-0.1,0-0.1,0-0.1,0.1l-0.1,0.3c0,0.1-0.1,0.1-0.1,0.1l-2.3-0.9c-0.1,0-0.1-0.1-0.1-0.1l0.1-0.3
				C210.1,414.3,210.1,414.3,210,414.2z M209.8,415c0-0.1,0.1-0.1,0.1-0.1l2.3,0.9c0.1,0,0.1,0.1,0.1,0.1l-0.4,0.9l-0.1,0.2
				l-2.4-0.9c-0.1,0-0.1-0.1-0.1-0.1L209.8,415z"/>
			<path id="XMLID_1017_" class="st23" d="M208.1,408.2c0.5-0.1,1,0,1.4,0.3c0.5,0.4,0.9,0.9,1.2,1.4c0.7,1.8-0.4,4.6-0.6,5.2
				c0,0.1,0,0.1,0.1,0.2l1.6,0.6c0.1,0,0.1,0,0.2-0.1c0.2-0.5,1-1,1.2-0.9c0.9,0.3,1.1-3.7,0.2-6.1c-0.6-1.7-1.9-2.9-3.8-3.6
				l-3.8-1.5l-0.2-0.1l-3.8-1.5c-1.9-0.7-3.6-0.7-5.2,0.1c-2.3,1.1-4.8,4.3-3.9,4.6c0.3,0.1,0.5,1,0.3,1.5c0,0.1,0,0.1,0.1,0.1
				l1.7,0.6c0.1,0,0.1,0,0.2-0.1c0.2-0.6,1.2-3.4,3-4.3c0.5-0.3,1.1-0.4,1.7-0.3c0.5,0.1,1,0.3,1.3,0.7
				C201.8,406.5,206.6,408.4,208.1,408.2z"/>
		</g>
		<g id="XMLID_819_">
			<path id="XMLID_1022_" class="st22" d="M218.2,419.3l0.5-0.6c0-0.1,0.1-0.1,0.2,0l8.3,3.2c0.1,0,0.1,0.1,0.1,0.2l-0.1,0.7
				c0,0.1-0.1,0.2-0.2,0.1l-8.7-3.3C218.2,419.5,218.2,419.4,218.2,419.3z"/>
			<path id="XMLID_1020_" class="st24" d="M220.5,420.2l-1.2-0.4c-0.1,0-0.1-0.1-0.1-0.2l0.1-0.3c0-0.1,0.1-0.1,0.2-0.1l1.2,0.4
				c0.1,0,0.1,0.1,0.1,0.2l-0.1,0.3C220.7,420.2,220.6,420.3,220.5,420.2z"/>
			<g id="XMLID_1018_">
				
					<rect id="XMLID_1032_" x="224.9" y="421.5" transform="matrix(0.934 0.3573 -0.3573 0.934 165.5865 -52.6886)" class="st25" width="1" height="0.6"/>
				
					<rect id="XMLID_1045_" x="226.5" y="422.1" transform="matrix(0.934 0.3573 -0.3573 0.934 165.8362 -53.0975)" class="st26" width="0.2" height="0.2"/>
				
					<rect id="XMLID_1046_" x="226.7" y="422.1" transform="matrix(0.934 0.3573 -0.3573 0.934 165.8716 -53.1556)" class="st27" width="0.1" height="0.3"/>
				<path id="XMLID_1040_" class="st24" d="M224.7,421.9l-0.6-0.2c0,0,0,0,0-0.1l0.2-0.6c0,0,0,0,0.1,0l0.6,0.2c0,0,0,0,0,0.1
					L224.7,421.9C224.8,421.9,224.7,421.9,224.7,421.9z"/>
				<path id="XMLID_1044_" class="st24" d="M226.3,422.5l-0.6-0.2c0,0,0,0,0-0.1l0.2-0.6c0,0,0,0,0.1,0l0.6,0.2c0,0,0,0,0,0.1
					L226.3,422.5C226.4,422.5,226.3,422.5,226.3,422.5z"/>
			</g>
		</g>
		<g id="XMLID_817_">
			<path id="XMLID_1011_" class="st22" d="M177,403.6l0.5-0.6c0-0.1,0.1-0.1,0.2,0l8.3,3.2c0.1,0,0.1,0.1,0.1,0.2L186,407
				c0,0.1-0.1,0.2-0.2,0.1l-8.7-3.3C177,403.8,177,403.7,177,403.6z"/>
			<path id="XMLID_1015_" class="st24" d="M184.9,406.6l-1.2-0.4c-0.1,0-0.1-0.1-0.1-0.2l0.1-0.3c0-0.1,0.1-0.1,0.2-0.1l1.2,0.4
				c0.1,0,0.1,0.1,0.1,0.2l-0.1,0.3C185.1,406.6,185,406.7,184.9,406.6z"/>
			<g id="XMLID_956_">
				
					<rect id="XMLID_964_" x="178.7" y="403.8" transform="matrix(-0.934 -0.3573 0.3573 -0.934 202.1025 845.4575)" class="st25" width="1" height="0.6"/>
				
					<rect id="XMLID_962_" x="177.8" y="403.5" transform="matrix(-0.934 -0.3573 0.3573 -0.934 199.8897 844.1065)" class="st26" width="0.2" height="0.2"/>
				
					<rect id="XMLID_960_" x="177.7" y="403.4" transform="matrix(-0.934 -0.3573 0.3573 -0.934 199.5754 843.9146)" class="st27" width="0.1" height="0.3"/>
				<path id="XMLID_958_" class="st24" d="M179.5,404.6l0.6,0.2c0,0,0.1,0,0.1,0l0.2-0.6c0,0,0-0.1,0-0.1l-0.6-0.2c0,0-0.1,0-0.1,0
					L179.5,404.6C179.5,404.6,179.5,404.6,179.5,404.6z"/>
				<path id="XMLID_957_" class="st24" d="M178,404l0.6,0.2c0,0,0.1,0,0.1,0l0.2-0.6c0,0,0-0.1,0-0.1l-0.6-0.2c0,0-0.1,0-0.1,0
					L178,404C177.9,404,177.9,404,178,404z"/>
			</g>
		</g>
	</g>
</g>
<g id="XMLID_993_">
	
		<ellipse id="XMLID_863_" transform="matrix(0.1144 -0.9934 0.9934 0.1144 -18.1447 676.9623)" class="st28" cx="370.6" cy="348.7" rx="2.4" ry="13.5"/>
	<path id="XMLID_1019_" class="st29" d="M354.3,311.1c0,0-3.9-3.7-5.1,1.6s6,10.7,6,10.7s1.7,4,1.5,5.1c0,0-12.9-10.7-9.9-17.5
		c0,0,2.7-5.1,8.2-2C355,308.9,354.9,310.7,354.3,311.1z"/>
	
		<ellipse id="XMLID_948_" transform="matrix(0.1144 -0.9934 0.9934 0.1144 -7.6842 669.5974)" class="st30" cx="371.7" cy="339.1" rx="10.8" ry="31.2"/>
	
		<ellipse id="XMLID_950_" transform="matrix(0.1144 -0.9934 0.9934 0.1144 -8.5747 670.2244)" class="st31" cx="371.6" cy="339.9" rx="4.8" ry="13.9"/>
	<path id="XMLID_1031_" class="st32" d="M395.5,313.1c0,0.3-20.1-2-20.1-2s-20.1-2.3-20.1-2.6c0,0-4.4,6,3.1,24.4c0,0,2.2,4,2.7,6.1
		c0.5,2.1,7.3,4.1,10.5,4.5c3.1,0.4,10.2,0,11.2-2c1-2,4.1-5.4,4.1-5.4C398.4,319.9,395.5,313.1,395.5,313.1z"/>
	<path id="XMLID_1021_" class="st33" d="M356.7,312.8c-0.4-0.2-0.9,0-0.9,0.5c0,0.3-0.1,0.6-0.1,1c-0.1,3.1,0.5,8.8,4.1,17.7
		c0,0,0,0,0,0.1c0.5,0.9,2.1,3.8,2.8,6.1c0,0.1,0.1,0.3,0.3,0.3c0.5,0.3,1.4,0.8,3,1.3c1.3,0.5,2.7,0.8,3.7,1
		c0.4,0.1,0.7-0.2,0.7-0.6l2.6-22.2c0-0.3-0.2-0.6-0.5-0.7C370,316.9,361.2,315.3,356.7,312.8z"/>
	<path id="XMLID_1061_" class="st31" d="M393.7,312.1c-0.9-0.6-2.3-1.3-4-1.9c-3.7-1.3-8.6-2.4-13.9-3c-5.3-0.6-10.4-0.7-14.3-0.3
		c-1.8,0.2-3.3,0.5-4.3,0.9c-0.8,0.3-1.3,0.7-1.3,1c0,0.3,0.4,0.8,1.1,1.3c0.9,0.6,2.3,1.3,4,1.9c3.7,1.3,8.6,2.4,13.9,3
		c5.3,0.6,10.4,0.7,14.3,0.3c1.8-0.2,3.3-0.5,4.3-0.9c0.8-0.3,1.3-0.7,1.3-1C394.8,313.1,394.4,312.6,393.7,312.1z"/>
	<path id="XMLID_1066_" class="st34" d="M374.9,315.1c5.3,0.6,10.4,0.7,14.3,0.3c1.2-0.1,2.3-0.3,3.2-0.6c-0.8-0.4-1.8-0.9-3-1.3
		c-3.7-1.3-8.6-2.4-13.9-3c-5.3-0.6-10.4-0.7-14.3-0.3c-1.2,0.1-2.3,0.3-3.2,0.6c0.8,0.4,1.8,0.9,3,1.3
		C364.6,313.5,369.5,314.5,374.9,315.1z"/>
	<g id="XMLID_1051_">
		<path class="st35" d="M375.9,306.5c-11.1-1.3-20.4-0.2-20.7,2.4c-0.3,2.6,8.5,5.7,19.6,7c11.1,1.3,20.4,0.2,20.7-2.4
			C395.8,310.9,387,307.8,375.9,306.5z M393.4,314.5c-1,0.4-2.5,0.7-4.3,0.9c-3.9,0.4-8.9,0.3-14.3-0.3c-5.3-0.6-10.3-1.7-13.9-3
			c-1.7-0.6-3.1-1.3-4-1.9c-0.7-0.5-1.1-1-1.1-1.3c0-0.3,0.5-0.7,1.3-1c1-0.4,2.5-0.7,4.3-0.9c3.9-0.4,8.9-0.3,14.3,0.3
			c5.3,0.6,10.3,1.7,13.9,3c1.7,0.6,3.1,1.3,4,1.9c0.7,0.5,1.1,1,1.1,1.3C394.7,313.8,394.2,314.1,393.4,314.5z"/>
	</g>
	<path id="XMLID_953_" class="st36" d="M366.5,308.5c0.7-0.4,1.4-1,1.5-1.8c0.1-0.8-0.5-1.4-1.1-1.9c-0.6-0.5-1.4-1.2-1.4-2.2
		c0-0.5,0.3-0.9,0.7-1.2c0.3-0.3,0.7-0.5,1.1-0.7l0,0c0.5-0.3,1.1-0.7,1.2-1.3c0-0.3,0-0.6-0.1-0.9c-0.1-0.3-0.4-0.5-0.6-0.8
		l0.4,0.3c0.1,0.1,0.2,0.3,0.3,0.4c0.2,0.3,0.3,0.6,0.3,1c0,0.4-0.2,0.7-0.4,1c-0.2,0.3-0.5,0.5-0.8,0.7l0,0l0,0
		c-0.7,0.3-1.4,0.9-1.5,1.6c0,0.7,0.6,1.3,1.2,1.9c0.3,0.3,0.6,0.6,0.8,1c0.2,0.4,0.3,0.9,0.2,1.3c-0.1,0.4-0.4,0.8-0.7,1.1
		C367.3,308.1,366.9,308.3,366.5,308.5z"/>
	<path id="XMLID_984_" class="st36" d="M374.3,305.3c-0.4-0.2-0.7-0.5-0.9-0.9c-0.3-0.3-0.4-0.8-0.4-1.2c0-0.5,0.2-0.9,0.5-1.2
		c0.3-0.3,0.7-0.6,1.1-0.8c0.7-0.4,1.4-0.9,1.6-1.5c0.1-0.7-0.5-1.4-1.1-1.9l0,0l0,0c-0.3-0.3-0.5-0.5-0.7-0.9
		c-0.2-0.3-0.3-0.7-0.2-1.1c0-0.4,0.3-0.7,0.5-0.9c0.1-0.1,0.3-0.2,0.4-0.3l0.5-0.2c-0.3,0.2-0.6,0.4-0.8,0.6
		c-0.2,0.2-0.3,0.6-0.4,0.9c0,0.6,0.4,1.2,0.9,1.6l0,0c0.4,0.3,0.7,0.6,1,0.9c0.3,0.4,0.5,0.8,0.4,1.3c-0.1,0.5-0.4,0.9-0.7,1.2
		c-0.3,0.3-0.7,0.5-1.1,0.7c-0.7,0.4-1.4,0.9-1.5,1.6C373.2,304,373.7,304.7,374.3,305.3z"/>
	<path id="XMLID_987_" class="st36" d="M381.1,310.1c0.7-0.4,1.4-1,1.5-1.8c0.1-0.8-0.5-1.4-1.1-1.9c-0.3-0.3-0.7-0.6-0.9-0.9
		c-0.3-0.4-0.5-0.8-0.5-1.3c0-0.5,0.3-0.9,0.7-1.2c0.3-0.3,0.7-0.5,1.1-0.7l0,0c0.5-0.3,1.1-0.7,1.2-1.3c0-0.3,0-0.6-0.2-0.9
		c-0.1-0.3-0.4-0.5-0.6-0.8l0.4,0.3c0.1,0.1,0.2,0.3,0.3,0.4c0.2,0.3,0.3,0.6,0.3,1c0,0.4-0.2,0.7-0.5,1c-0.2,0.3-0.5,0.5-0.8,0.7
		l0,0l0,0c-0.7,0.3-1.4,0.9-1.5,1.6c0,0.7,0.6,1.3,1.2,1.9c0.3,0.3,0.6,0.6,0.9,1c0.2,0.4,0.3,0.9,0.3,1.3c-0.1,0.5-0.4,0.8-0.7,1.1
		C381.9,309.7,381.5,309.9,381.1,310.1z"/>
</g>
<path id="XMLID_1009_" class="st0" d="M379.3,348.7c0,0,34.8-0.8,13.9-13.8"/>
<path id="XMLID_1028_" class="st0" d="M350.7,308.7c0,0-4.9,0.7-3.1,7.6"/>
<g id="XMLID_1004_">
	<path id="XMLID_954_" class="st37" d="M114.5,292.2c-0.1,0.6,0.1,1.4,0.9,1.7c0.3,0.1,0.7,0.1,1,0c0.6-0.2,1.9-0.5,2.5,0.9
		c0.5,1.2-0.3,1.9-0.9,2.2c-0.9,0.5-1.3,1.7-0.9,2.6c0,0.1,0.1,0.2,0.1,0.3c0.8,1.5,1.5,3.3,1.7,3.8c0,0.1,0.1,0.2,0,0.3l-0.6,2.3
		c-0.1,0.2,0,0.5,0.2,0.6l1,0.7c0.2,0.1,0.2,0.3,0.2,0.5l-0.3,4.6c0,0.2,0.1,0.4,0.2,0.5l2.8,2.2c0.2,0.1,0.2,0.3,0.2,0.5l-0.3,2.1
		c0,0.2,0.1,0.4,0.2,0.5l2.9,2c0.2,0.1,0.3,0.3,0.2,0.5l-0.2,2c0,0.2,0.1,0.4,0.3,0.6l1.6,1c0.2,0.1,0.3,0.3,0.3,0.6l-0.6,3.6
		c0,0.2,0.1,0.5,0.3,0.6l1.4,0.8c0.2,0.1,0.3,0.4,0.2,0.6l-0.6,2.3c0,0.1-0.2,0.1-0.2,0l-17.3-39.7c-0.1-0.3,0-0.6,0.3-0.8l2.6-1.1
		C114.1,291.4,114.5,291.7,114.5,292.2z"/>
	<g id="XMLID_843_">
		<path id="XMLID_695_" class="st26" d="M128.2,333.4l-1.1,2.1c-0.2,0.4-0.6,0.6-1,0.5l-2.3-0.6c-0.5-0.1-0.9-0.5-1.1-1l-17.7-40.6
			l5.7-2.5l8.9,20.3c-0.4,1.1-0.1,1.9,1,2.2l7.9,18C128.5,332.4,128.5,332.9,128.2,333.4z"/>
		<path id="XMLID_706_" class="st37" d="M123.7,333.9l-0.1,0c-0.3-0.1-0.5-0.3-0.6-0.6l-17.2-39.4c-0.1-0.2,0-0.3,0.2-0.4l0.3-0.1
			c0.2-0.1,0.3,0,0.4,0.2l17.4,39.9C124.2,333.7,124,334,123.7,333.9z"/>
		<path id="XMLID_852_" class="st37" d="M105,294.1c0,0,0.6,1.3,0.1,3c-0.1,0.5,0.1,1.1,0.6,1.4c0.7,0.4,1.7,1.1,2.3,2.5"/>
	</g>
	<path id="XMLID_1208_" class="st38" d="M120.7,273.5c-2.3-5.3-8.4-7.9-13.8-5.8c-2-3.4-6.3-4.8-10-3.2c-3.7,1.6-5.6,5.8-4.5,9.6
		c-4.6,2.8-6.5,8.6-4.3,13.7c1,2.3,2.6,4,4.6,5.1l0,0c3.1,1.9,6.4,2.7,8.9,3c2.8,0.9,5.9,0.8,8.7-0.5c1.9-0.8,3.5-2.1,4.8-3.6l0,0
		c0,0,4.9-4.7,6.2-11.4l0,0C121.8,278.2,121.7,275.8,120.7,273.5z M101.5,275.1c-1.8,0.8-3.9,0-4.7-1.8c-0.8-1.8,0-3.9,1.8-4.7
		c1.8-0.8,3.9,0,4.7,1.8C104.1,272.2,103.3,274.3,101.5,275.1z"/>
	<path id="XMLID_955_" class="st26" d="M109.7,294c-2.4,1.1-5.1,1.2-7.7,0.4l-0.1,0l-0.1,0c-1.9-0.2-4.5-0.8-7-2.1l-1.3-0.7
		c-1.8-1-3.2-2.5-4-4.4c-1.9-4.3-0.3-9.3,3.7-11.8l1-0.6l-0.3-1.1c-0.9-3.1,0.6-6.4,3.6-7.7c2.9-1.3,6.4-0.2,8.1,2.5l0.7,1.1
		l1.2-0.4c4.7-1.8,9.9,0.5,11.9,5c0.8,1.9,1,3.9,0.5,5.9l0,0l0,0c-0.6,3.3-2.2,6.1-3.6,7.9l0-0.1l-2.3,2.8
		C112.8,292.2,111.4,293.3,109.7,294z M98,267.2c-2.6,1.1-3.7,4.1-2.6,6.7s4.1,3.7,6.7,2.6c2.6-1.1,3.7-4.1,2.6-6.7
		C103.6,267.3,100.6,266.1,98,267.2z"/>
	<g id="XMLID_1003_">
		<g id="XMLID_1001_">
			<path id="XMLID_995_" class="st39" d="M97.5,261.1l-1.4,0.6l4.5,10.3c-0.4-1-0.8-2-1.1-3C98.2,265.3,97.6,261.9,97.5,261.1z"/>
			<path id="XMLID_1000_" class="st40" d="M97.5,261.1c0.1,0.8,0.7,4.2,2,7.9c0.3,1,0.7,2,1.1,3l0,0l0.3-0.1c-0.4-1-0.8-2-1.1-3
				c-1.3-3.8-1.9-7.1-2-7.9L97.5,261.1z"/>
			<path id="XMLID_992_" class="st41" d="M97.8,260.9c0.1,0.8,0.7,4.2,2,7.9c0.3,1,0.7,2,1.1,3l0.4-0.2c-0.4-1-0.8-2-1.1-3
				c-1.3-3.8-1.9-7.1-2-7.9L97.8,260.9z"/>
			<path id="XMLID_996_" class="st7" d="M98.2,260.8c0.1,0.8,0.7,4.2,2,7.9c0.3,1,0.7,2,1.1,3l0.5-0.2c-0.4-1-0.8-2.1-1.2-3.1
				c-1.4-4.2-1.9-7.9-1.9-7.9L98.2,260.8z"/>
		</g>
		<g id="XMLID_850_">
			<path id="XMLID_991_" class="st39" d="M94.7,262.3l1.4-0.6l4.5,10.3c-0.4-1-0.9-2-1.4-2.9C97.3,265.7,95.2,263,94.7,262.3z"/>
			<path id="XMLID_990_" class="st40" d="M94.7,262.3c0.5,0.7,2.6,3.4,4.5,6.9c0.5,0.9,1,1.9,1.4,2.9l0,0l-0.3,0.1
				c-0.4-1-0.9-2-1.4-2.9c-1.9-3.5-4-6.2-4.5-6.9L94.7,262.3z"/>
			<path id="XMLID_890_" class="st41" d="M94.4,262.4c0.5,0.7,2.6,3.4,4.5,6.9c0.5,0.9,1,1.9,1.4,2.9l-0.4,0.2c-0.4-1-0.9-2-1.4-2.9
				c-1.9-3.5-4-6.2-4.5-6.9L94.4,262.4z"/>
			<path id="XMLID_864_" class="st7" d="M94,262.6c0.5,0.7,2.6,3.4,4.5,6.9c0.5,0.9,1,1.9,1.4,2.9l-0.5,0.2c-0.4-1-0.9-2-1.5-2.9
				c-2.1-3.9-4.5-6.8-4.5-6.8L94,262.6z"/>
		</g>
	</g>
	<path id="XMLID_1198_" class="st38" d="M115.3,281.7l-17.6,7.7c-0.4,0.2-0.9,0-1.1-0.4l-2.4-5.6c-0.2-0.4,0-0.9,0.4-1.1l17.6-7.7
		c0.4-0.2,0.9,0,1.1,0.4l2.4,5.6C115.9,281,115.7,281.5,115.3,281.7z"/>
	<g>
		<path class="st42" d="M101.4,286.6l-2.7,1.2l-0.3-0.7l0.3-1.6c0.1-0.5,0.1-0.8,0.2-1c0-0.2,0-0.4,0-0.6c0-0.2-0.1-0.3-0.1-0.5
			c-0.1-0.2-0.2-0.3-0.3-0.4c-0.1-0.1-0.3-0.1-0.4,0c-0.1,0.1-0.2,0.1-0.3,0.2s-0.2,0.3-0.2,0.5l-0.8-0.3c0.1-0.4,0.3-0.7,0.4-0.8
			c0.2-0.2,0.4-0.3,0.6-0.4c0.4-0.2,0.8-0.2,1.1-0.1c0.3,0.1,0.6,0.4,0.8,0.8c0.1,0.2,0.1,0.4,0.2,0.6c0,0.2,0,0.4,0,0.6
			c0,0.2,0,0.4-0.1,0.7c0,0.2-0.2,0.8-0.4,1.7l0,0l1.6-0.7L101.4,286.6z"/>
		<path class="st42" d="M104.6,285.2l-2.7,1.2l-0.3-0.7l0.3-1.6c0.1-0.5,0.1-0.8,0.2-1c0-0.2,0-0.4,0-0.6c0-0.2-0.1-0.3-0.1-0.5
			c-0.1-0.2-0.2-0.3-0.3-0.4c-0.1-0.1-0.3-0.1-0.4,0c-0.1,0.1-0.2,0.1-0.3,0.2s-0.2,0.3-0.2,0.5L100,282c0.1-0.4,0.3-0.7,0.4-0.8
			c0.2-0.2,0.4-0.3,0.6-0.4c0.4-0.2,0.8-0.2,1.1-0.1c0.3,0.1,0.6,0.4,0.8,0.8c0.1,0.2,0.1,0.4,0.2,0.6c0,0.2,0,0.4,0,0.6
			c0,0.2,0,0.4-0.1,0.7c0,0.2-0.2,0.8-0.4,1.7l0,0l1.6-0.7L104.6,285.2z"/>
		<path class="st42" d="M107.4,283.9l-0.9,0.4l-1.3-2.9c-0.1-0.3-0.3-0.7-0.4-1.1c0,0,0,0.1-0.1,0.3c-0.1,0.2-0.2,0.5-0.3,0.9
			l-0.8-0.3l0.8-1.8l0.8-0.4L107.4,283.9z"/>
		<path class="st42" d="M108.3,283c-0.1-0.2-0.1-0.3,0-0.5c0.1-0.1,0.2-0.2,0.4-0.3s0.3-0.1,0.5,0c0.1,0.1,0.2,0.2,0.3,0.4
			c0.1,0.2,0.1,0.3,0,0.5c-0.1,0.1-0.2,0.3-0.4,0.3c-0.2,0.1-0.3,0.1-0.5,0C108.5,283.3,108.4,283.1,108.3,283z"/>
		<path class="st42" d="M108.3,277.6l1.3-0.6c0.5-0.2,0.9-0.3,1.3-0.2c0.3,0.1,0.6,0.4,0.8,0.8c0.1,0.3,0.2,0.6,0.1,0.8
			c0,0.2-0.2,0.4-0.4,0.6l0,0c0.3-0.1,0.6,0,0.8,0.1s0.4,0.4,0.5,0.7c0.2,0.5,0.2,0.9,0.1,1.2c-0.1,0.4-0.4,0.6-0.8,0.8l-1.5,0.7
			L108.3,277.6z M110.1,279.2l0.4-0.2c0.2-0.1,0.3-0.2,0.3-0.3c0-0.1,0-0.3-0.1-0.5c-0.1-0.2-0.2-0.3-0.3-0.4c-0.1,0-0.3,0-0.5,0.1
			l-0.4,0.2L110.1,279.2z M110.4,280l0.6,1.4l0.5-0.2c0.2-0.1,0.3-0.2,0.4-0.4c0-0.2,0-0.4-0.1-0.6c-0.2-0.4-0.5-0.6-0.9-0.4
			L110.4,280z"/>
	</g>
</g>
</svg>
